<svg height="512pt" viewBox="-83 0 512 512.001" width="512pt" xmlns="http://www.w3.org/2000/svg"><path d="m260.179688 503.640625-71.246094-28.894531v-45.371094h-32.546875v45.371094l-71.25 28.894531c-1.925781.78125-3.027344 2.8125-2.628907 4.851563.398438 2.039062 2.1875 3.507812 4.265626 3.507812h171.769531c2.078125 0 3.867187-1.46875 4.265625-3.507812.398437-2.039063-.707032-4.070313-2.628906-4.851563zm0 0" fill="#eac092"/><path d="m156.386719 429.375v45.371094l-71.25 28.894531c-1.925781.78125-3.027344 2.8125-2.628907 4.851563.398438 2.039062 2.1875 3.507812 4.265626 3.507812h19.488281l66.085937-26.796875v-55.824219h-15.960937zm0 0" fill="#e0aa68"/><path d="m73.785156 390.101562c.125.277344.242188.554688.390625.835938l13.523438 25.753906c3.953125 7.527344 14.148437 13.683594 22.660156 13.683594h124.601563c8.507812 0 18.707031-6.15625 22.65625-13.683594l13.523437-25.753906c.148437-.28125.265625-.558594.390625-.835938zm0 0" fill="#f8d5ab"/><path d="m119.679688 416.691406-13.523438-25.753906c-.148438-.28125-.265625-.558594-.394531-.835938h-31.976563c.125.277344.242188.554688.390625.835938l13.523438 25.753906c3.949219 7.527344 14.148437 13.683594 22.65625 13.683594h31.980469c-8.507813 0-18.707032-6.15625-22.65625-13.683594zm0 0" fill="#eac092"/><path d="m208.902344 6.046875c-3.90625-3.898437-9.097656-6.046875-14.617188-6.046875-5.523437 0-10.714844 2.148438-14.621094 6.046875l-7.003906 6.992187-7.003906-6.992187c-3.90625-3.898437-9.097656-6.046875-14.621094-6.046875-5.523437 0-10.714844 2.148438-14.617187 6.046875-3.90625 3.898437-6.058594 9.082031-6.058594 14.597656 0 5.511719 2.152344 10.695313 6.058594 14.59375l30 29.957031h12.484375l30-29.957031c3.90625-3.898437 6.054687-9.082031 6.054687-14.59375 0-5.515625-2.148437-10.699219-6.054687-14.597656zm0 0" fill="#e62937"/><path d="m178.902344 65.195312 9.847656-9.832031-30.675781-30.628906c-3.90625-3.902344-6.058594-9.085937-6.058594-14.597656 0-3.492188.867187-6.847657 2.488281-9.828125-1.136718-.191406-2.292968-.308594-3.46875-.308594-5.523437 0-10.714844 2.148438-14.617187 6.046875-3.90625 3.898437-6.058594 9.082031-6.058594 14.597656 0 5.511719 2.152344 10.695313 6.058594 14.59375l30 29.957031zm0 0" fill="#b7092b"/><path d="m194.640625 82.738281v-13.394531c0-2.832031-2.320313-5.148438-5.15625-5.148438h-33.648437c-2.835938 0-5.160157 2.316407-5.160157 5.148438v13.394531zm0 0" fill="#e0aa68"/><path d="m172.019531 82.738281v-13.394531c0-2.832031 2.320313-5.148438 5.15625-5.148438h-21.34375c-2.835937 0-5.15625 2.316407-5.15625 5.148438v13.394531zm0 0" fill="#b57a4e"/><path d="m235.835938 163.25v-38.234375c-3.371094 2.21875-7.304688 3.410156-11.40625 3.410156-8.675782 0-16.53125-5.453125-19.554688-13.570312-.980469-2.628907-3.523438-4.390625-6.332031-4.390625-2.804688 0-5.347657 1.761718-6.328125 4.390625-3.019532 8.117187-10.882813 13.570312-19.554688 13.570312-8.675781 0-16.535156-5.453125-19.558594-13.570312-.980468-2.628907-3.523437-4.390625-6.328124-4.390625-2.808594 0-5.351563 1.761718-6.328126 4.390625-3.023437 8.117187-10.882812 13.570312-19.558593 13.570312-4.101563 0-8.035157-1.191406-11.40625-3.410156v38.234375zm0 0" fill="#fcf3eb"/><path d="m130.886719 163.25v-37.410156c-3.011719 1.648437-6.433594 2.585937-10 2.585937-4.101563 0-8.035157-1.195312-11.40625-3.410156v38.230469h21.40625zm0 0" fill="#f8d5ab"/><path d="m279.03125 258.003906v-43.558594c-2.195312.800782-4.488281 1.234376-6.855469 1.234376-8.320312 0-15.859375-5.234376-18.757812-13.019532-.945313-2.539062-3.40625-4.246094-6.121094-4.246094s-5.175781 1.707032-6.121094 4.246094c-2.898437 7.785156-10.4375 13.019532-18.757812 13.019532-8.320313 0-15.859375-5.234376-18.761719-13.019532-.945312-2.539062-3.40625-4.246094-6.117188-4.246094-2.714843 0-5.171874 1.703126-6.121093 4.246094-2.898438 7.785156-10.441407 13.019532-18.761719 13.019532s-15.859375-5.230469-18.757812-13.019532c-.949219-2.539062-3.40625-4.246094-6.121094-4.246094s-5.171875 1.707032-6.117188 4.246094c-2.902344 7.789063-10.441406 13.019532-18.761718 13.019532-8.320313 0-15.859376-5.230469-18.761719-13.015626-.945313-2.542968-3.402344-4.25-6.117188-4.25-2.714843 0-5.175781 1.707032-6.121093 4.246094-2.902344 7.789063-10.441407 13.019532-18.761719 13.019532-2.363281 0-4.660157-.429688-6.851563-1.234376v43.5625h212.746094zm0 0" fill="#eac092"/><path d="m87.828125 258.003906v-48.761718c-3.726563 4.003906-9.023437 6.4375-14.6875 6.4375-2.367187 0-4.660156-.433594-6.851563-1.234376v43.558594zm0 0" fill="#e0aa68"/><path d="m128.78125 301.617188v-11.390626c0-3.355468 1.480469-5.359374 3.964844-5.359374 1.050781 0 2.25.371093 3.46875 1.074218l27.144531 15.648438.523437-.394532c2.566407-1.917968 5.601563-2.929687 8.777344-2.929687 3.175782 0 6.210938 1.011719 8.773438 2.929687l.527344.394532 27.140624-15.648438c1.222657-.703125 2.421876-1.074218 3.46875-1.074218 2.484376 0 3.96875 2.003906 3.96875 5.359374v11.390626h91.964844v-29.082032c0-8.542968-7-15.53125-15.554687-15.53125h-240.582031c-8.554688 0-15.554688 6.988282-15.554688 15.53125v29.082032zm0 0" fill="#fcf3eb"/><path d="m216.539062 324.210938v11.390624c0 3.355469-1.484374 5.359376-3.96875 5.359376-1.046874 0-2.246093-.371094-3.46875-1.074219l-27.140624-15.648438-.527344.394531c-2.566406 1.917969-5.597656 2.929688-8.773438 2.929688-3.179687 0-6.210937-1.011719-8.777344-2.929688l-.523437-.394531-27.144531 15.648438c-1.21875.703125-2.417969 1.074219-3.46875 1.074219-2.484375 0-3.964844-2.003907-3.964844-5.359376v-11.390624h-91.96875v43.6875h271.691406v-43.6875zm0 0" fill="#fcf3eb"/><path d="m58.160156 301.617188v-29.082032c0-8.542968 7-15.53125 15.554688-15.53125h-21.347656c-8.554688 0-15.554688 6.988282-15.554688 15.53125v29.082032zm0 0" fill="#f8d5ab"/><path d="m36.8125 324.210938h21.347656v43.6875h-21.347656zm0 0" fill="#f8d5ab"/><path d="m345.316406 385.949219c0 2.832031-2.320312 5.152343-5.15625 5.152343h-335c-2.839844 0-5.160156-2.320312-5.160156-5.152343v-13.898438c0-2.832031 2.320312-5.152343 5.160156-5.152343h335c2.835938 0 5.15625 2.320312 5.15625 5.152343zm0 0" fill="#e0aa68"/><path d="m32.371094 385.949219v-13.898438c0-2.832031 2.320312-5.152343 5.15625-5.152343h-32.367188c-2.839844 0-5.160156 2.320312-5.160156 5.152343v13.898438c0 2.832031 2.320312 5.152343 5.160156 5.152343h32.367188c-2.835938 0-5.15625-2.320312-5.15625-5.152343zm0 0" fill="#b57a4e"/><path d="m128.78125 300.617188h-95.554688c-2.839843 0-5.15625 2.320312-5.15625 5.152343v14.289063c0 2.832031 2.316407 5.148437 5.15625 5.148437h95.554688zm0 0" fill="#b7092b"/><path d="m312.089844 300.617188h-95.550782v24.59375h95.550782c2.839844 0 5.160156-2.320313 5.160156-5.152344v-14.289063c0-2.832031-2.320312-5.152343-5.160156-5.152343zm0 0" fill="#b7092b"/><path d="m49.554688 320.058594v-14.289063c0-2.832031 2.320312-5.148437 5.15625-5.148437h-21.484376c-2.839843 0-5.15625 2.316406-5.15625 5.148437v14.289063c0 2.832031 2.316407 5.152344 5.15625 5.152344h21.484376c-2.835938 0-5.15625-2.320313-5.15625-5.152344zm0 0" fill="#7f051a"/><path d="m157.988281 312.914062c0-4.957031 2.480469-9.339843 6.269531-11.988281-.179687-.09375-.363281-.179687-.535156-.277343l-27.007812-15.570313c-4.914063-2.835937-8.933594-.515625-8.933594 5.148437v45.375c0 5.664063 4.019531 7.984376 8.933594 5.152344l27.007812-15.570312c.171875-.101563.355469-.1875.535156-.277344-3.785156-2.652344-6.269531-7.035156-6.269531-11.992188zm0 0" fill="#e62937"/><path d="m208.601562 285.078125-27.007812 15.570313c-.171875.097656-.355469.183593-.535156.277343 3.785156 2.648438 6.273437 7.03125 6.273437 11.988281 0 4.957032-2.484375 9.339844-6.273437 11.992188.179687.089844.363281.175781.535156.277344l27.007812 15.570312c4.914063 2.832032 8.9375.511719 8.9375-5.152344v-45.375c0-5.664062-4.023437-7.984374-8.9375-5.148437zm0 0" fill="#e62937"/><path d="m141.710938 335.601562v-45.375c0-.78125.085937-1.488281.230468-2.136718l-5.226562-3.015625c-4.914063-2.832031-8.933594-.511719-8.933594 5.152343v45.375c0 5.664063 4.019531 7.984376 8.933594 5.152344l5.226562-3.015625c-.144531-.648437-.230468-1.355469-.230468-2.136719zm0 0" fill="#cf043c"/><path d="m188.332031 312.914062c0-8.640624-7.019531-15.648437-15.671875-15.648437-8.65625 0-15.671875 7.007813-15.671875 15.648437 0 8.640626 7.015625 15.648438 15.671875 15.648438 8.652344 0 15.671875-7.007812 15.671875-15.648438zm0 0" fill="#b7092b"/><path d="m272.175781 216.679688c-8.734375 0-16.648437-5.496094-19.695312-13.667969-.800781-2.152344-2.882813-3.597657-5.183594-3.597657-2.296875 0-4.382813 1.445313-5.179687 3.597657-3.046876 8.175781-10.964844 13.667969-19.699219 13.667969-8.738281 0-16.652344-5.496094-19.695313-13.667969-.800781-2.152344-2.886718-3.597657-5.183594-3.597657-2.296874 0-4.378906 1.445313-5.179687 3.59375-3.050781 8.179688-10.964844 13.671876-19.699219 13.671876-8.738281 0-16.652344-5.496094-19.699218-13.667969-.800782-2.152344-2.882813-3.597657-5.183594-3.597657-2.296875 0-4.378906 1.445313-5.179688 3.59375-3.046875 8.175782-10.960937 13.671876-19.699218 13.671876-8.734376 0-16.652344-5.496094-19.695313-13.667969-.804687-2.152344-2.882813-3.601563-5.183594-3.601563-2.296875 0-4.382812 1.445313-5.183593 3.597656-3.046876 8.175782-10.964844 13.667969-19.695313 13.667969-3.007813 0-5.914063-.625-8.640625-1.855469-1.851562-.839843-3.042969-2.683593-3.042969-4.71875v-31.617187c0-8.953125 7.292969-16.238281 16.261719-16.238281h189.878906c8.96875 0 16.261719 7.285156 16.261719 16.238281v31.617187c0 2.035157-1.1875 3.878907-3.042969 4.71875-2.726562 1.234376-5.636718 1.859376-8.640625 1.859376zm0 0" fill="#ffe2b8"/><path d="m82.914062 210.105469v-31.621094c0-8.953125 7.296876-16.238281 16.261719-16.238281h-21.457031c-8.96875 0-16.261719 7.285156-16.261719 16.238281v31.621094c0 2.03125 1.191407 3.875 3.046875 4.714843 2.726563 1.234376 5.632813 1.859376 8.636719 1.859376 3.984375 0 7.792969-1.15625 11.050781-3.175782-.804687-.925781-1.277344-2.125-1.277344-3.398437zm0 0" fill="#eac092"/><g fill="#fff"><path d="m98 239.429688c-1.980469 0-3.910156-.800782-5.308594-2.199219-1.394531-1.390625-2.191406-3.332031-2.191406-5.300781 0-1.980469.796875-3.910157 2.191406-5.308594 1.398438-1.390625 3.328125-2.191406 5.308594-2.191406 1.96875 0 3.898438.800781 5.296875 2.191406 1.402344 1.398437 2.203125 3.328125 2.203125 5.308594 0 1.96875-.800781 3.898437-2.203125 5.300781-1.398437 1.398437-3.328125 2.199219-5.296875 2.199219zm0 0"/><path d="m147.765625 239.429688c-1.96875 0-3.898437-.800782-5.296875-2.199219-1.398438-1.402344-2.203125-3.332031-2.203125-5.300781 0-1.980469.804687-3.910157 2.203125-5.308594 1.398438-1.390625 3.328125-2.191406 5.296875-2.191406 1.980469 0 3.910156.800781 5.304687 2.191406 1.398438 1.398437 2.195313 3.328125 2.195313 5.308594 0 1.96875-.796875 3.898437-2.195313 5.300781-1.390624 1.398437-3.320312 2.199219-5.304687 2.199219zm0 0"/><path d="m197.546875 239.429688c-1.976563 0-3.910156-.800782-5.308594-2.199219-1.390625-1.390625-2.191406-3.332031-2.191406-5.300781 0-1.980469.800781-3.910157 2.191406-5.308594 1.398438-1.390625 3.332031-2.191406 5.308594-2.191406 1.972656 0 3.910156.800781 5.300781 2.191406 1.402344 1.398437 2.199219 3.339844 2.199219 5.308594s-.796875 3.898437-2.199219 5.300781c-1.398437 1.398437-3.332031 2.199219-5.300781 2.199219zm0 0"/><path d="m247.320312 239.429688c-1.972656 0-3.902343-.800782-5.304687-2.199219-1.386719-1.402344-2.195313-3.332031-2.195313-5.300781 0-1.980469.808594-3.910157 2.195313-5.308594 1.402344-1.390625 3.332031-2.191406 5.304687-2.191406 1.976563 0 3.90625.800781 5.308594 2.191406 1.390625 1.398437 2.191406 3.328125 2.191406 5.308594 0 1.96875-.804687 3.898437-2.191406 5.300781-1.402344 1.398437-3.332031 2.199219-5.308594 2.199219zm0 0"/></g><path d="m224.429688 129.425781c-9.089844 0-17.328126-5.714843-20.496094-14.222656-.832032-2.238281-3-3.742187-5.390625-3.742187s-4.558594 1.503906-5.390625 3.742187c-3.167969 8.507813-11.40625 14.222656-20.496094 14.222656s-17.324219-5.714843-20.492188-14.222656c-.835937-2.238281-3-3.742187-5.390624-3.742187-2.394532 0-4.558594 1.503906-5.394532 3.742187-3.167968 8.507813-11.402344 14.222656-20.496094 14.222656-5.710937 0-11.128906-2.210937-15.242187-6.21875-1.089844-1.058593-1.699219-2.511719-1.699219-4.03125v-20.542969c0-9.316406 7.585938-16.894531 16.917969-16.894531h103.597656c9.328125 0 16.917969 7.578125 16.917969 16.894531v20.542969c0 1.519531-.613281 2.972657-1.703125 4.03125-4.113281 4.007813-9.527344 6.21875-15.242187 6.21875zm0 0" fill="#ffe2b8"/><path d="m126.910156 123.207031c-1.089844-1.058593-1.703125-2.511719-1.703125-4.03125v-20.542969c0-9.316406 7.589844-16.894531 16.917969-16.894531h-21.265625c-9.328125 0-16.917969 7.578125-16.917969 16.894531v20.542969c0 1.519531.613282 2.972657 1.699219 4.03125 4.117187 4.007813 9.53125 6.21875 15.246094 6.21875 3.796875 0 7.441406-1.011719 10.632812-2.792969-1.65625-.929687-3.214843-2.066406-4.609375-3.425781zm0 0" fill="#eac092"/><path d="m146.21875 148.308594c-1.980469 0-3.910156-.796875-5.308594-2.191406-1.394531-1.398438-2.191406-3.328126-2.191406-5.308594 0-1.96875.800781-3.898438 2.191406-5.296875 1.398438-1.402344 3.328125-2.203125 5.308594-2.203125 1.972656 0 3.910156.800781 5.300781 2.203125 1.398438 1.386719 2.199219 3.328125 2.199219 5.296875 0 1.980468-.800781 3.910156-2.199219 5.308594-1.402343 1.394531-3.332031 2.191406-5.300781 2.191406zm0 0" fill="#e0aa68"/><path d="m199.097656 148.308594c-1.96875 0-3.898437-.796875-5.300781-2.191406-1.398437-1.398438-2.199219-3.328126-2.199219-5.308594 0-1.96875.800782-3.898438 2.199219-5.296875 1.394531-1.402344 3.332031-2.203125 5.300781-2.203125 1.980469 0 3.910156.800781 5.3125 2.203125 1.386719 1.398437 2.1875 3.328125 2.1875 5.296875 0 1.980468-.800781 3.910156-2.1875 5.308594-1.402344 1.394531-3.332031 2.191406-5.3125 2.191406zm0 0" fill="#e0aa68"/></svg>